<mxfile host="app.diagrams.net" agent="5.0" version="24.7.17">
  <diagram name="Use Case Diagram" id="usecase-diagram-clean">
    <mxGraphModel dx="1422" dy="754" grid="1" gridSize="10" guides="1" tooltips="1" connect="1" arrows="1" fold="1" page="1" pageScale="1" pageWidth="1169" pageHeight="827" math="0" shadow="0">
      <root>
        <mxCell id="0" />
        <mxCell id="1" parent="0" />
        
        <!-- Title -->
        <mxCell id="title" value="Use Case Diagram - DSA Visualizer Platform" style="text;html=1;align=center;verticalAlign=middle;whiteSpace=wrap;rounded=0;fontSize=18;fontStyle=1" vertex="1" parent="1">
          <mxGeometry x="284" y="30" width="600" height="30" as="geometry" />
        </mxCell>

        <!-- System Boundary -->
        <mxCell id="system-boundary" value="DSA Visualizer Platform" style="rounded=1;whiteSpace=wrap;html=1;fontSize=16;fontStyle=1;fillColor=none;strokeColor=#000000;strokeWidth=3;dashed=0" vertex="1" parent="1">
          <mxGeometry x="200" y="120" width="700" height="600" as="geometry" />
        </mxCell>

        <!-- Actors -->
        <mxCell id="guest-user" value="Guest&#xa;User" style="shape=umlActor;verticalLabelPosition=bottom;verticalAlign=top;html=1;outlineConnect=0;fontSize=12;fillColor=#e1d5e7;strokeColor=#9673a6" vertex="1" parent="1">
          <mxGeometry x="50" y="250" width="60" height="120" as="geometry" />
        </mxCell>

        <mxCell id="student-user" value="Student&#xa;User" style="shape=umlActor;verticalLabelPosition=bottom;verticalAlign=top;html=1;outlineConnect=0;fontSize=12;fillColor=#d5e8d4;strokeColor=#82b366" vertex="1" parent="1">
          <mxGeometry x="50" y="420" width="60" height="120" as="geometry" />
        </mxCell>

        <mxCell id="teacher" value="Teacher" style="shape=umlActor;verticalLabelPosition=bottom;verticalAlign=top;html=1;outlineConnect=0;fontSize=12;fillColor=#f8cecc;strokeColor=#b85450" vertex="1" parent="1">
          <mxGeometry x="50" y="590" width="60" height="120" as="geometry" />
        </mxCell>

        <mxCell id="admin" value="System&#xa;Admin" style="shape=umlActor;verticalLabelPosition=bottom;verticalAlign=top;html=1;outlineConnect=0;fontSize=12;fillColor=#ffe6cc;strokeColor=#d79b00" vertex="1" parent="1">
          <mxGeometry x="980" y="420" width="60" height="120" as="geometry" />
        </mxCell>

        <!-- Guest User Use Cases -->
        <mxCell id="browse-algorithms" value="Browse Available&#xa;Algorithms" style="ellipse;whiteSpace=wrap;html=1;fontSize=10;fillColor=#e1d5e7;strokeColor=#9673a6" vertex="1" parent="1">
          <mxGeometry x="250" y="180" width="120" height="60" as="geometry" />
        </mxCell>

        <mxCell id="view-demos" value="View Demo&#xa;Visualizations" style="ellipse;whiteSpace=wrap;html=1;fontSize=10;fillColor=#e1d5e7;strokeColor=#9673a6" vertex="1" parent="1">
          <mxGeometry x="400" y="160" width="120" height="60" as="geometry" />
        </mxCell>

        <mxCell id="read-docs" value="Read Algorithm&#xa;Documentation" style="ellipse;whiteSpace=wrap;html=1;fontSize=10;fillColor=#e1d5e7;strokeColor=#9673a6" vertex="1" parent="1">
          <mxGeometry x="550" y="180" width="120" height="60" as="geometry" />
        </mxCell>

        <!-- Core Learning Use Cases -->
        <mxCell id="register-account" value="Register&#xa;Account" style="ellipse;whiteSpace=wrap;html=1;fontSize=10;fillColor=#d5e8d4;strokeColor=#82b366" vertex="1" parent="1">
          <mxGeometry x="250" y="280" width="120" height="60" as="geometry" />
        </mxCell>

        <mxCell id="login-system" value="Login to&#xa;System" style="ellipse;whiteSpace=wrap;html=1;fontSize=10;fillColor=#d5e8d4;strokeColor=#82b366" vertex="1" parent="1">
          <mxGeometry x="400" y="260" width="120" height="60" as="geometry" />
        </mxCell>

        <mxCell id="select-algorithm" value="Select Algorithm&#xa;to Learn" style="ellipse;whiteSpace=wrap;html=1;fontSize=10;fillColor=#d5e8d4;strokeColor=#82b366" vertex="1" parent="1">
          <mxGeometry x="550" y="280" width="120" height="60" as="geometry" />
        </mxCell>

        <mxCell id="run-visualization" value="Run Step-by-step&#xa;Visualization" style="ellipse;whiteSpace=wrap;html=1;fontSize=10;fillColor=#d5e8d4;strokeColor=#82b366" vertex="1" parent="1">
          <mxGeometry x="700" y="260" width="120" height="60" as="geometry" />
        </mxCell>

        <!-- Interactive Features -->
        <mxCell id="control-playback" value="Control Playback&#xa;Speed" style="ellipse;whiteSpace=wrap;html=1;fontSize=10;fillColor=#d5e8d4;strokeColor=#82b366" vertex="1" parent="1">
          <mxGeometry x="250" y="380" width="120" height="60" as="geometry" />
        </mxCell>

        <mxCell id="step-through" value="Step Through&#xa;Algorithm" style="ellipse;whiteSpace=wrap;html=1;fontSize=10;fillColor=#d5e8d4;strokeColor=#82b366" vertex="1" parent="1">
          <mxGeometry x="400" y="360" width="120" height="60" as="geometry" />
        </mxCell>

        <mxCell id="customize-input" value="Customize Input&#xa;Data" style="ellipse;whiteSpace=wrap;html=1;fontSize=10;fillColor=#d5e8d4;strokeColor=#82b366" vertex="1" parent="1">
          <mxGeometry x="550" y="380" width="120" height="60" as="geometry" />
        </mxCell>

        <mxCell id="compare-algorithms" value="Compare Different&#xa;Algorithms" style="ellipse;whiteSpace=wrap;html=1;fontSize=10;fillColor=#d5e8d4;strokeColor=#82b366" vertex="1" parent="1">
          <mxGeometry x="700" y="360" width="120" height="60" as="geometry" />
        </mxCell>

        <!-- Learning Management -->
        <mxCell id="track-progress" value="Track Learning&#xa;Progress" style="ellipse;whiteSpace=wrap;html=1;fontSize=10;fillColor=#d5e8d4;strokeColor=#82b366" vertex="1" parent="1">
          <mxGeometry x="250" y="480" width="120" height="60" as="geometry" />
        </mxCell>

        <mxCell id="save-sessions" value="Save Learning&#xa;Sessions" style="ellipse;whiteSpace=wrap;html=1;fontSize=10;fillColor=#d5e8d4;strokeColor=#82b366" vertex="1" parent="1">
          <mxGeometry x="400" y="460" width="120" height="60" as="geometry" />
        </mxCell>

        <mxCell id="access-ai-help" value="Access AI&#xa;Assistant" style="ellipse;whiteSpace=wrap;html=1;fontSize=10;fillColor=#d5e8d4;strokeColor=#82b366" vertex="1" parent="1">
          <mxGeometry x="550" y="480" width="120" height="60" as="geometry" />
        </mxCell>

        <mxCell id="take-quizzes" value="Take Algorithm&#xa;Quizzes" style="ellipse;whiteSpace=wrap;html=1;fontSize=10;fillColor=#d5e8d4;strokeColor=#82b366" vertex="1" parent="1">
          <mxGeometry x="700" y="460" width="120" height="60" as="geometry" />
        </mxCell>

        <!-- Collaboration Features -->
        <mxCell id="join-discussions" value="Join Algorithm&#xa;Discussions" style="ellipse;whiteSpace=wrap;html=1;fontSize=10;fillColor=#d5e8d4;strokeColor=#82b366" vertex="1" parent="1">
          <mxGeometry x="250" y="580" width="120" height="60" as="geometry" />
        </mxCell>

        <mxCell id="share-solutions" value="Share Problem&#xa;Solutions" style="ellipse;whiteSpace=wrap;html=1;fontSize=10;fillColor=#d5e8d4;strokeColor=#82b366" vertex="1" parent="1">
          <mxGeometry x="400" y="560" width="120" height="60" as="geometry" />
        </mxCell>

        <mxCell id="peer-review" value="Participate in&#xa;Peer Review" style="ellipse;whiteSpace=wrap;html=1;fontSize=10;fillColor=#d5e8d4;strokeColor=#82b366" vertex="1" parent="1">
          <mxGeometry x="550" y="580" width="120" height="60" as="geometry" />
        </mxCell>

        <!-- Teacher Use Cases -->
        <mxCell id="create-assignments" value="Create Learning&#xa;Assignments" style="ellipse;whiteSpace=wrap;html=1;fontSize=10;fillColor=#f8cecc;strokeColor=#b85450" vertex="1" parent="1">
          <mxGeometry x="250" y="660" width="120" height="60" as="geometry" />
        </mxCell>

        <mxCell id="monitor-students" value="Monitor Student&#xa;Progress" style="ellipse;whiteSpace=wrap;html=1;fontSize=10;fillColor=#f8cecc;strokeColor=#b85450" vertex="1" parent="1">
          <mxGeometry x="400" y="640" width="120" height="60" as="geometry" />
        </mxCell>

        <mxCell id="grade-submissions" value="Grade Student&#xa;Submissions" style="ellipse;whiteSpace=wrap;html=1;fontSize=10;fillColor=#f8cecc;strokeColor=#b85450" vertex="1" parent="1">
          <mxGeometry x="550" y="660" width="120" height="60" as="geometry" />
        </mxCell>

        <mxCell id="customize-curriculum" value="Customize&#xa;Curriculum" style="ellipse;whiteSpace=wrap;html=1;fontSize=10;fillColor=#f8cecc;strokeColor=#b85450" vertex="1" parent="1">
          <mxGeometry x="700" y="640" width="120" height="60" as="geometry" />
        </mxCell>

        <!-- Admin Use Cases -->
        <mxCell id="manage-users" value="Manage System&#xa;Users" style="ellipse;whiteSpace=wrap;html=1;fontSize=10;fillColor=#ffe6cc;strokeColor=#d79b00" vertex="1" parent="1">
          <mxGeometry x="700" y="550" width="120" height="60" as="geometry" />
        </mxCell>

        <mxCell id="update-content" value="Update Algorithm&#xa;Content" style="ellipse;whiteSpace=wrap;html=1;fontSize=10;fillColor=#ffe6cc;strokeColor=#d79b00" vertex="1" parent="1">
          <mxGeometry x="750" y="450" width="120" height="60" as="geometry" />
        </mxCell>

        <mxCell id="monitor-system" value="Monitor System&#xa;Performance" style="ellipse;whiteSpace=wrap;html=1;fontSize=10;fillColor=#ffe6cc;strokeColor=#d79b00" vertex="1" parent="1">
          <mxGeometry x="750" y="350" width="120" height="60" as="geometry" />
        </mxCell>

        <mxCell id="generate-reports" value="Generate Usage&#xa;Reports" style="ellipse;whiteSpace=wrap;html=1;fontSize=10;fillColor=#ffe6cc;strokeColor=#d79b00" vertex="1" parent="1">
          <mxGeometry x="700" y="150" width="120" height="60" as="geometry" />
        </mxCell>

        <!-- Associations -->
        <!-- Guest User -->
        <mxCell id="assoc1" style="endArrow=none;html=1;rounded=0;exitX=1;exitY=0.3333333333333333;exitDx=0;exitDy=0;exitPerimeter=0;entryX=0;entryY=0.5;entryDx=0;entryDy=0" edge="1" parent="1" source="guest-user" target="browse-algorithms">
          <mxGeometry width="50" height="50" relative="1" as="geometry">
            <mxPoint x="400" y="400" as="sourcePoint" />
            <mxPoint x="450" y="350" as="targetPoint" />
          </mxGeometry>
        </mxCell>

        <mxCell id="assoc2" style="endArrow=none;html=1;rounded=0;exitX=1;exitY=0.3333333333333333;exitDx=0;exitDy=0;exitPerimeter=0;entryX=0;entryY=0.5;entryDx=0;entryDy=0" edge="1" parent="1" source="guest-user" target="view-demos">
          <mxGeometry width="50" height="50" relative="1" as="geometry">
            <mxPoint x="120" y="290" as="sourcePoint" />
            <mxPoint x="260" y="220" as="targetPoint" />
            <Array as="points">
              <mxPoint x="150" y="290" />
              <mxPoint x="150" y="190" />
            </Array>
          </mxGeometry>
        </mxCell>

        <mxCell id="assoc3" style="endArrow=none;html=1;rounded=0;exitX=1;exitY=0.3333333333333333;exitDx=0;exitDy=0;exitPerimeter=0;entryX=0;entryY=0.5;entryDx=0;entryDy=0" edge="1" parent="1" source="guest-user" target="read-docs">
          <mxGeometry width="50" height="50" relative="1" as="geometry">
            <mxPoint x="120" y="290" as="sourcePoint" />
            <mxPoint x="410" y="200" as="targetPoint" />
            <Array as="points">
              <mxPoint x="150" y="290" />
              <mxPoint x="150" y="210" />
            </Array>
          </mxGeometry>
        </mxCell>

        <mxCell id="assoc4" style="endArrow=none;html=1;rounded=0;exitX=1;exitY=0.3333333333333333;exitDx=0;exitDy=0;exitPerimeter=0;entryX=0;entryY=0.5;entryDx=0;entryDy=0" edge="1" parent="1" source="guest-user" target="register-account">
          <mxGeometry width="50" height="50" relative="1" as="geometry">
            <mxPoint x="120" y="290" as="sourcePoint" />
            <mxPoint x="260" y="220" as="targetPoint" />
          </mxGeometry>
        </mxCell>

        <!-- Student User Associations -->
        <mxCell id="assoc5" style="endArrow=none;html=1;rounded=0;exitX=1;exitY=0.3333333333333333;exitDx=0;exitDy=0;exitPerimeter=0;entryX=0;entryY=0.5;entryDx=0;entryDy=0" edge="1" parent="1" source="student-user" target="login-system">
          <mxGeometry width="50" height="50" relative="1" as="geometry">
            <mxPoint x="120" y="460" as="sourcePoint" />
            <mxPoint x="400" y="290" as="targetPoint" />
            <Array as="points">
              <mxPoint x="170" y="460" />
              <mxPoint x="170" y="290" />
            </Array>
          </mxGeometry>
        </mxCell>

        <mxCell id="assoc6" style="endArrow=none;html=1;rounded=0;exitX=1;exitY=0.3333333333333333;exitDx=0;exitDy=0;exitPerimeter=0;entryX=0;entryY=0.5;entryDx=0;entryDy=0" edge="1" parent="1" source="student-user" target="select-algorithm">
          <mxGeometry width="50" height="50" relative="1" as="geometry">
            <mxPoint x="120" y="460" as="sourcePoint" />
            <mxPoint x="550" y="310" as="targetPoint" />
            <Array as="points">
              <mxPoint x="170" y="460" />
              <mxPoint x="170" y="310" />
            </Array>
          </mxGeometry>
        </mxCell>

        <mxCell id="assoc7" style="endArrow=none;html=1;rounded=0;exitX=1;exitY=0.3333333333333333;exitDx=0;exitDy=0;exitPerimeter=0;entryX=0;entryY=0.5;entryDx=0;entryDy=0" edge="1" parent="1" source="student-user" target="run-visualization">
          <mxGeometry width="50" height="50" relative="1" as="geometry">
            <mxPoint x="120" y="460" as="sourcePoint" />
            <mxPoint x="700" y="290" as="targetPoint" />
            <Array as="points">
              <mxPoint x="170" y="460" />
              <mxPoint x="170" y="290" />
            </Array>
          </mxGeometry>
        </mxCell>

        <!-- More student associations -->
        <mxCell id="assoc8" style="endArrow=none;html=1;rounded=0;exitX=1;exitY=0.3333333333333333;exitDx=0;exitDy=0;exitPerimeter=0;entryX=0;entryY=0.5;entryDx=0;entryDy=0" edge="1" parent="1" source="student-user" target="control-playback">
          <mxGeometry width="50" height="50" relative="1" as="geometry">
            <mxPoint x="120" y="460" as="sourcePoint" />
            <mxPoint x="250" y="410" as="targetPoint" />
          </mxGeometry>
        </mxCell>

        <mxCell id="assoc9" style="endArrow=none;html=1;rounded=0;exitX=1;exitY=0.3333333333333333;exitDx=0;exitDy=0;exitPerimeter=0;entryX=0;entryY=0.5;entryDx=0;entryDy=0" edge="1" parent="1" source="student-user" target="step-through">
          <mxGeometry width="50" height="50" relative="1" as="geometry">
            <mxPoint x="120" y="460" as="sourcePoint" />
            <mxPoint x="400" y="390" as="targetPoint" />
          </mxGeometry>
        </mxCell>

        <mxCell id="assoc10" style="endArrow=none;html=1;rounded=0;exitX=1;exitY=0.3333333333333333;exitDx=0;exitDy=0;exitPerimeter=0;entryX=0;entryY=0.5;entryDx=0;entryDy=0" edge="1" parent="1" source="student-user" target="track-progress">
          <mxGeometry width="50" height="50" relative="1" as="geometry">
            <mxPoint x="120" y="460" as="sourcePoint" />
            <mxPoint x="250" y="510" as="targetPoint" />
          </mxGeometry>
        </mxCell>

        <mxCell id="assoc11" style="endArrow=none;html=1;rounded=0;exitX=1;exitY=0.3333333333333333;exitDx=0;exitDy=0;exitPerimeter=0;entryX=0;entryY=0.5;entryDx=0;entryDy=0" edge="1" parent="1" source="student-user" target="access-ai-help">
          <mxGeometry width="50" height="50" relative="1" as="geometry">
            <mxPoint x="120" y="460" as="sourcePoint" />
            <mxPoint x="550" y="510" as="targetPoint" />
          </mxGeometry>
        </mxCell>

        <!-- Teacher Associations -->
        <mxCell id="assoc12" style="endArrow=none;html=1;rounded=0;exitX=1;exitY=0.3333333333333333;exitDx=0;exitDy=0;exitPerimeter=0;entryX=0;entryY=0.5;entryDx=0;entryDy=0" edge="1" parent="1" source="teacher" target="login-system">
          <mxGeometry width="50" height="50" relative="1" as="geometry">
            <mxPoint x="120" y="630" as="sourcePoint" />
            <mxPoint x="400" y="290" as="targetPoint" />
            <Array as="points">
              <mxPoint x="190" y="630" />
              <mxPoint x="190" y="290" />
            </Array>
          </mxGeometry>
        </mxCell>

        <mxCell id="assoc13" style="endArrow=none;html=1;rounded=0;exitX=1;exitY=0.3333333333333333;exitDx=0;exitDy=0;exitPerimeter=0;entryX=0;entryY=0.5;entryDx=0;entryDy=0" edge="1" parent="1" source="teacher" target="create-assignments">
          <mxGeometry width="50" height="50" relative="1" as="geometry">
            <mxPoint x="120" y="630" as="sourcePoint" />
            <mxPoint x="250" y="690" as="targetPoint" />
            <Array as="points">
              <mxPoint x="190" y="630" />
              <mxPoint x="190" y="690" />
            </Array>
          </mxGeometry>
        </mxCell>

        <mxCell id="assoc14" style="endArrow=none;html=1;rounded=0;exitX=1;exitY=0.3333333333333333;exitDx=0;exitDy=0;exitPerimeter=0;entryX=0;entryY=0.5;entryDx=0;entryDy=0" edge="1" parent="1" source="teacher" target="monitor-students">
          <mxGeometry width="50" height="50" relative="1" as="geometry">
            <mxPoint x="120" y="630" as="sourcePoint" />
            <mxPoint x="400" y="670" as="targetPoint" />
            <Array as="points">
              <mxPoint x="190" y="630" />
              <mxPoint x="190" y="670" />
            </Array>
          </mxGeometry>
        </mxCell>

        <!-- Admin Associations -->
        <mxCell id="assoc15" style="endArrow=none;html=1;rounded=0;exitX=0;exitY=0.3333333333333333;exitDx=0;exitDy=0;exitPerimeter=0;entryX=1;entryY=0.5;entryDx=0;entryDy=0" edge="1" parent="1" source="admin" target="manage-users">
          <mxGeometry width="50" height="50" relative="1" as="geometry">
            <mxPoint x="980" y="460" as="sourcePoint" />
            <mxPoint x="820" y="580" as="targetPoint" />
            <Array as="points">
              <mxPoint x="920" y="460" />
              <mxPoint x="920" y="580" />
            </Array>
          </mxGeometry>
        </mxCell>

        <mxCell id="assoc16" style="endArrow=none;html=1;rounded=0;exitX=0;exitY=0.3333333333333333;exitDx=0;exitDy=0;exitPerimeter=0;entryX=1;entryY=0.5;entryDx=0;entryDy=0" edge="1" parent="1" source="admin" target="update-content">
          <mxGeometry width="50" height="50" relative="1" as="geometry">
            <mxPoint x="980" y="460" as="sourcePoint" />
            <mxPoint x="870" y="480" as="targetPoint" />
          </mxGeometry>
        </mxCell>

        <mxCell id="assoc17" style="endArrow=none;html=1;rounded=0;exitX=0;exitY=0.3333333333333333;exitDx=0;exitDy=0;exitPerimeter=0;entryX=1;entryY=0.5;entryDx=0;entryDy=0" edge="1" parent="1" source="admin" target="monitor-system">
          <mxGeometry width="50" height="50" relative="1" as="geometry">
            <mxPoint x="980" y="460" as="sourcePoint" />
            <mxPoint x="870" y="380" as="targetPoint" />
            <Array as="points">
              <mxPoint x="920" y="460" />
              <mxPoint x="920" y="380" />
            </Array>
          </mxGeometry>
        </mxCell>

        <!-- Include Relationships -->
        <mxCell id="include1" style="endArrow=open;dashed=1;html=1;rounded=0;exitX=0.5;exitY=0;exitDx=0;exitDy=0;entryX=0.5;entryY=1;entryDx=0;entryDy=0;labelBackgroundColor=#ffffff" edge="1" parent="1" source="control-playback" target="run-visualization">
          <mxGeometry width="50" height="50" relative="1" as="geometry">
            <mxPoint x="400" y="400" as="sourcePoint" />
            <mxPoint x="450" y="350" as="targetPoint" />
            <Array as="points">
              <mxPoint x="310" y="330" />
              <mxPoint x="760" y="330" />
            </Array>
          </mxGeometry>
        </mxCell>

        <mxCell id="include1-label" value="&lt;&lt;include&gt;&gt;" style="text;html=1;align=center;verticalAlign=middle;whiteSpace=wrap;rounded=0;fontSize=8" vertex="1" parent="1">
          <mxGeometry x="500" y="325" width="60" height="20" as="geometry" />
        </mxCell>

        <mxCell id="include2" style="endArrow=open;dashed=1;html=1;rounded=0;exitX=0.5;exitY=0;exitDx=0;exitDy=0;entryX=0.5;entryY=1;entryDx=0;entryDy=0;labelBackgroundColor=#ffffff" edge="1" parent="1" source="step-through" target="run-visualization">
          <mxGeometry width="50" height="50" relative="1" as="geometry">
            <mxPoint x="320" y="390" as="sourcePoint" />
            <mxPoint x="770" y="330" as="targetPoint" />
            <Array as="points">
              <mxPoint x="460" y="340" />
              <mxPoint x="760" y="340" />
            </Array>
          </mxGeometry>
        </mxCell>

        <mxCell id="include2-label" value="&lt;&lt;include&gt;&gt;" style="text;html=1;align=center;verticalAlign=middle;whiteSpace=wrap;rounded=0;fontSize=8" vertex="1" parent="1">
          <mxGeometry x="570" y="335" width="60" height="20" as="geometry" />
        </mxCell>

        <!-- Extend Relationships -->
        <mxCell id="extend1" style="endArrow=open;dashed=1;html=1;rounded=0;exitX=1;exitY=0.5;exitDx=0;exitDy=0;entryX=0;entryY=0.5;entryDx=0;entryDy=0;strokeColor=#ff6666" edge="1" parent="1" source="access-ai-help" target="run-visualization">
          <mxGeometry width="50" height="50" relative="1" as="geometry">
            <mxPoint x="670" y="510" as="sourcePoint" />
            <mxPoint x="700" y="290" as="targetPoint" />
            <Array as="points">
              <mxPoint x="680" y="510" />
              <mxPoint x="680" y="290" />
            </Array>
          </mxGeometry>
        </mxCell>

        <mxCell id="extend1-label" value="&lt;&lt;extend&gt;&gt;" style="text;html=1;align=center;verticalAlign=middle;whiteSpace=wrap;rounded=0;fontSize=8" vertex="1" parent="1">
          <mxGeometry x="680" y="400" width="60" height="20" as="geometry" />
        </mxCell>

      </root>
    </mxGraphModel>
  </diagram>
</mxfile>
